<svg width="10" height="18" viewBox="0 0 10 18" fill="none" xmlns="http://www.w3.org/2000/svg">
<path fill-rule="evenodd" clip-rule="evenodd" d="M7.69049 9.00278L0.297499 1.75393L0.288431 1.74417C-0.0882787 1.33897 -0.0903785 0.706395 0.349748 0.300611C0.553817 0.112467 0.857077 -7.49282e-08 1.1348 -9.92075e-08C1.48294 -1.29642e-07 1.74785 0.142033 1.94959 0.328028L1.95657 0.334467L9.45553 7.71467L9.45642 7.71554C10.1872 8.4299 10.1718 9.58059 9.46657 10.3072L9.46157 10.3124L1.95618 17.6715L1.94959 17.6775C1.55097 18.0451 0.837946 18.1551 0.34975 17.705C-0.0467679 17.3394 -0.166916 16.687 0.312333 16.2371L7.69049 9.00278Z" fill="#637381"/>
</svg>
