<svg width="22" height="22" viewBox="0 0 22 22" fill="none" xmlns="http://www.w3.org/2000/svg">
<rect x="0.35" y="0.35" width="21.3" height="21.3" rx="3.65" stroke="#E7E7E7" stroke-width="0.7"/>
<path d="M16.0777 7.94411L16.0725 7.93844L16.0669 7.93319C15.8768 7.756 15.5798 7.7556 15.3893 7.93202L9.51332 13.2435L6.62666 10.6274C6.43608 10.4509 6.13908 10.4512 5.94893 10.6285C5.75036 10.8135 5.75036 11.1145 5.94893 11.2996L5.94892 11.2996L5.95099 11.3015L8.89061 13.9656C9.06123 14.1241 9.28974 14.2 9.497 14.2C9.72292 14.2 9.93446 14.1225 10.1033 13.9657L16.0288 8.60943C16.2472 8.4274 16.2488 8.13016 16.0777 7.94411Z" fill="#3056D3" stroke="#3056D3" stroke-width="0.4"/>
</svg>
